<?xml version="1.0" standalone="no"?><!DOCTYPE svg PUBLIC "-//W3C//DTD SVG 1.1//EN" "http://www.w3.org/Graphics/SVG/1.1/DTD/svg11.dtd"><svg t="1482664161303" class="icon" style="" viewBox="0 0 1024 1024" version="1.1" xmlns="http://www.w3.org/2000/svg" p-id="4733" xmlns:xlink="http://www.w3.org/1999/xlink" width="200" height="200"><defs><style type="text/css"></style></defs><path d="M512 943.706c-58.7 0-115.66-11.502-169.293-34.187-51.791-21.906-98.299-53.261-138.231-93.194-39.932-39.931-71.288-86.44-93.193-138.231C88.598 624.46 77.095 567.502 77.095 508.8c0-58.7 11.502-115.658 34.188-169.293 21.905-51.791 53.26-98.3 93.193-138.23 39.932-39.933 86.44-71.288 138.231-93.194C396.341 85.398 453.3 73.896 512 73.896c58.7 0 115.658 11.502 169.293 34.188 51.791 21.906 98.3 53.26 138.232 93.193s71.288 86.44 93.192 138.231c22.686 53.634 34.188 110.592 34.188 169.293 0 58.701-11.502 115.66-34.188 169.293-21.904 51.79-53.26 98.3-93.192 138.231-39.932 39.933-86.44 71.288-138.232 93.194C627.658 932.204 570.7 943.706 512 943.706z m0-818.645c-102.5 0-198.866 39.916-271.345 112.395S128.26 406.301 128.26 508.801c0 102.5 39.916 198.866 112.395 271.345S409.5 892.541 512 892.541s198.866-39.916 271.345-112.395S895.74 611.302 895.74 508.801c0-102.5-39.916-198.866-112.395-271.345S614.5 125.061 512 125.061z" fill="#FB6064" p-id="4734"></path><path d="M757.593 534.684H266.407c-14.13 0-25.583-11.454-25.583-25.583s11.454-25.583 25.583-25.583h491.186c14.13 0 25.583 11.454 25.583 25.583s-11.455 25.583-25.583 25.583z" fill="#272822" p-id="4735"></path></svg>