<?xml version="1.0" standalone="no"?><!DOCTYPE svg PUBLIC "-//W3C//DTD SVG 1.1//EN" "http://www.w3.org/Graphics/SVG/1.1/DTD/svg11.dtd"><svg t="1482752896623" fill="#E6E6E6" class="icon" style="" viewBox="0 0 1024 1024" version="1.1" xmlns="http://www.w3.org/2000/svg" p-id="1024" xmlns:xlink="http://www.w3.org/1999/xlink" width="200" height="200"><defs><style type="text/css"></style></defs><path d="M511.556908 1013.266541c-134.303822 0-260.557294-52.052516-355.530342-146.555867C61.019749 772.132622 8.68173 646.416386 8.68173 512.61603c0-133.76761 52.338019-259.521708 147.304927-354.062921C250.960729 64.046688 377.219317 11.999288 511.524163 11.999288s260.563434 52.0474 355.497597 146.553821c95.045703 94.54019 147.343813 220.295312 147.343813 354.025059 0.032746 133.799332-52.29811 259.554454-147.343813 354.094644C772.120342 961.180256 645.861754 1013.266541 511.556908 1013.266541L511.556908 1013.266541zM511.556908 83.805708c-115.191532 0-223.456305 44.608987-304.848033 125.644605C125.348869 290.414299 80.519872 398.103974 80.519872 512.61603c0 114.50694 44.796252 222.196615 126.149095 303.122739 81.397868 81.035618 189.656501 125.650745 304.855196 125.650745 115.15981 0 223.457328-44.615127 304.85008-125.650745 81.357959-80.996732 126.186957-188.647521 126.149095-303.160601 0-114.514103-44.790112-222.163869-126.149095-303.089993C735.014236 128.452557 626.716718 83.805708 511.556908 83.805708L511.556908 83.805708zM547.479049 548.533055l215.521588 0c19.862373 0 35.916001-16.092513 35.916001-35.917024 0-19.830651-16.052604-35.921117-35.916001-35.921117l0 0L547.479049 476.694913M551.365566 476.694913 260.119319 476.694913c-19.824511 0-35.916001 16.090467-35.916001 35.921117 0 19.824511 16.09149 35.917024 35.916001 35.917024l291.246247 0M763.000638 476.694913" p-id="1025"></path></svg>