<?xml version="1.0" standalone="no"?><!DOCTYPE svg PUBLIC "-//W3C//DTD SVG 1.1//EN" "http://www.w3.org/Graphics/SVG/1.1/DTD/svg11.dtd"><svg t="1482826132341" class="icon" style="" viewBox="0 0 1024 1024" version="1.1" xmlns="http://www.w3.org/2000/svg" p-id="2327" xmlns:xlink="http://www.w3.org/1999/xlink" width="200" height="200"><defs><style type="text/css"></style></defs><path d="M499.072 810.38848c-81.01376 0-156.3648-27.87328-206.73024-76.47744l-4.11136-3.968c-0.9984-0.96256-1.56672-2.29376-1.56672-3.6864L286.66368 504.82688 117.80608 420.39296c-1.73568-0.86528-2.83136-2.64192-2.83136-4.5824s1.09568-3.712 2.83136-4.5824L509.696 215.28064c0.72192-0.3584 1.50528-0.5376 2.28864-0.5376 0.78336 0 1.56672 0.1792 2.28864 0.5376l391.91552 195.95264c1.73568 0.86528 2.83136 2.64192 2.83136 4.5824s-1.09568 3.712-2.83136 4.5824l-86.1696 43.0848 0 111.6416c12.99456 11.3152 20.6848 28.04224 20.6848 45.23008 0 14.76608-5.48864 37.2736-13.66016 56.00256-15.37024 35.21536-33.64864 42.60352-46.2848 42.60352-12.63104 0-30.90432-7.38816-46.25408-42.60352-8.16128-18.72896-13.6448-41.23648-13.6448-56.00256 0-17.1776 7.68-33.89952 20.6592-45.22496l0-72.3968-30.03392 15.02208 0 208.51712c0 1.38752-0.5632 2.71872-1.56672 3.6864l-4.11648 3.96288C655.42144 782.5152 580.0704 810.38848 499.072 810.38848zM323.80416 712.43776c43.40224 38.67136 107.13088 60.80512 175.26272 60.80512 68.12672 0 131.85536-22.13376 175.26784-60.80512l0-161.92512-160.06656 80.01536c-0.72192 0.3584-1.50528 0.5376-2.28864 0.5376-0.78336 0-1.57184-0.1792-2.28864-0.5376l-185.89184-92.94336L323.79904 712.43776zM778.67008 592.32256c0 1.82272-0.96768 3.51744-2.54976 4.4288l-6.70208 3.88608c-7.04 4.09088-11.41248 11.64288-11.41248 19.71712 0 8.33024 3.94752 26.0096 10.55744 41.1648 5.08416 11.6736 9.79456 17.41312 12.20608 19.57376 2.41664-2.15552 7.13728-7.90016 12.23168-19.584 6.61504-15.15008 10.56256-32.82432 10.56256-41.15456 0-8.07424-4.3776-15.62624-11.42272-19.712l-6.71232-3.88608c-1.58208-0.91648-2.55488-2.60608-2.55488-4.4288L782.8736 483.33312l-4.1984 1.83296L778.6752 592.32256zM511.98976 586.20416l231.44448-125.96224c0.34816-0.29184 0.7424-0.5376 1.16224-0.72192l2.37568-1.03424 85.3248-42.67008L511.98976 255.6672 191.70304 415.81568 511.98976 586.20416z" p-id="2328" fill="#ffffff"></path></svg>