<?xml version="1.0" standalone="no"?><!DOCTYPE svg PUBLIC "-//W3C//DTD SVG 1.1//EN" "http://www.w3.org/Graphics/SVG/1.1/DTD/svg11.dtd"><svg t="1482744630890" fill="#FFF" class="icon" style="" viewBox="0 0 1024 1024" version="1.1" xmlns="http://www.w3.org/2000/svg" p-id="6074" xmlns:xlink="http://www.w3.org/1999/xlink" width="200" height="200"><defs><style type="text/css"></style></defs><path d="M583.4 483.5c-44.8 16-102.3 21.4-142.8 0-46.9-19.2-110.9-51.2-180.1-81v236.7S350 734 507.8 734c170.6 0 262.2-94.8 262.2-94.8V418.6c-53.4 21.3-114.1 40.4-186.6 64.9m0 0" fill="#272536" p-id="6075"></path><path d="M106.9 216c-80.5 35.1-26.6 46.9-4.3 60.7v142.9L68.5 459l66.1 57.6 60.2-57.6-36.3-40.5V300.2c195.6 80 247.8 104.5 291.5 123.7 43.7 20.2 74.6 19.1 117.3 3.1 43.7-16 238.8-89.5 340-137.5 68.2-32 72.5-52.3-1-80-96-36.2-244.2-93.8-328.4-124.7C528 64.6 502.4 54 456.5 76.4c-81 33-257.4 102.3-349.6 139.6m0 0" fill="#272536" p-id="6076"></path></svg>