<?xml version="1.0" standalone="no"?><!DOCTYPE svg PUBLIC "-//W3C//DTD SVG 1.1//EN" "http://www.w3.org/Graphics/SVG/1.1/DTD/svg11.dtd"><svg t="1482744522189" fill="#FFF"  class="icon" style="" viewBox="0 0 1024 1024" version="1.1" xmlns="http://www.w3.org/2000/svg" p-id="5412" xmlns:xlink="http://www.w3.org/1999/xlink" width="200" height="200"><defs><style type="text/css"></style></defs><path d="M64.303027 64.303538l0 895.392924 895.392924 0 0-895.392924L64.303027 64.303538zM890.819257 890.819768 133.178697 890.819768 133.178697 133.179208l757.64056 0L890.819257 890.819768z" p-id="5413"></path><path d="M236.493737 339.809289l68.876694 0 0 68.876694-68.876694 0L236.493737 339.809289z" p-id="5414"></path><path d="M374.246101 339.809289l413.259138 0 0 68.876694L374.246101 408.685983 374.246101 339.809289z" p-id="5415"></path><path d="M236.493737 477.561653l68.876694 0 0 68.876694-68.876694 0L236.493737 477.561653z" p-id="5416"></path><path d="M374.246101 477.561653l413.259138 0 0 68.876694L374.246101 546.438347 374.246101 477.561653z" p-id="5417"></path><path d="M236.493737 615.314017l68.876694 0 0 68.876694-68.876694 0L236.493737 615.314017z" p-id="5418"></path><path d="M374.246101 615.314017l413.259138 0 0 68.876694L374.246101 684.190711 374.246101 615.314017z" p-id="5419"></path></svg>